<?xml version="1.0" encoding="utf-8"?>
<!-- Generator: Adobe Illustrator 23.0.6, SVG Export Plug-In . SVG Version: 6.00 Build 0)  -->
<svg version="1.1" id="Layer_1" xmlns="http://www.w3.org/2000/svg" xmlns:xlink="http://www.w3.org/1999/xlink" x="0px" y="0px"
	 width="24px" height="24px" viewBox="0 0 24 24" style="enable-background:new 0 0 24 24;" xml:space="preserve">
<style type="text/css">
	.st0{fill-rule:evenodd;clip-rule:evenodd;fill:#CF4917;}
</style>
<path class="st0" d="M22.7,6.5c0,0.1,0,0.1-0.1,0.2c0,0.1-0.1,0.1-0.2,0.1c-0.5,0-0.9,0.2-1.1,0.5C21,7.6,20.7,8,20.4,8.8l-4.8,10.9
	c0,0.1-0.1,0.2-0.3,0.2c-0.1,0-0.2-0.1-0.3-0.2L12.3,14l-3.1,5.7c-0.1,0.1-0.2,0.2-0.3,0.2s-0.2-0.1-0.3-0.2l-4.7-11
	C3.6,8,3.3,7.5,2.9,7.3C2.6,7,2.1,6.8,1.5,6.8c-0.1,0-0.1,0-0.1-0.1S1.3,6.6,1.3,6.5c0-0.2,0.1-0.3,0.2-0.3c0.4,0,0.9,0,1.3,0.1
	c0.4,0,0.8,0.1,1.2,0.1s0.8,0,1.4-0.1c0.5,0,1-0.1,1.5-0.1C7,6.2,7,6.3,7,6.5s0,0.3-0.1,0.3c-0.4,0-0.8,0.1-1,0.3
	C5.7,7.3,5.6,7.5,5.6,7.8c0,0.2,0.1,0.3,0.2,0.6l3.9,8.9l2.2-4.2L9.8,8.7C9.4,7.9,9.1,7.4,8.9,7.2C8.6,7,8.3,6.8,7.8,6.8
	c0,0-0.1,0-0.1-0.1S7.6,6.6,7.6,6.5c0-0.2,0-0.3,0.1-0.3c0.4,0,0.8,0,1.2,0.1c0.3,0,0.7,0.1,1.1,0.1c0.4,0,0.8,0,1.2-0.1
	c0.4,0,0.9-0.1,1.3-0.1c0.1,0,0.2,0.1,0.2,0.3s0,0.3-0.1,0.3c-0.8,0.1-1.3,0.3-1.3,0.7c0,0.2,0.1,0.5,0.3,0.9l1.4,2.8l1.4-2.6
	c0.2-0.4,0.3-0.7,0.3-0.9c0-0.6-0.4-0.9-1.3-0.9c-0.1,0-0.1-0.1-0.1-0.3c0-0.1,0-0.1,0.1-0.2c0-0.1,0.1-0.1,0.1-0.1
	c0.3,0,0.7,0,1.1,0.1c0.4,0,0.8,0.1,1,0.1s0.5,0,0.9,0c0.5,0,0.9-0.1,1.2-0.1c0.1,0,0.1,0.1,0.1,0.2c0,0.2-0.1,0.3-0.2,0.3
	c-0.6,0-1,0.2-1.3,0.4c-0.3,0.2-0.7,0.7-1.1,1.5l-1.8,3.4l2.5,5l3.6-8.5c0.1-0.3,0.2-0.6,0.2-0.9c0-0.6-0.4-0.9-1.3-1
	c-0.1,0-0.1-0.1-0.1-0.3s0.1-0.3,0.2-0.3c0.3,0,0.7,0,1.1,0.1c0.4,0,0.7,0.1,1,0.1s0.6,0,1-0.1c0.4,0,0.7-0.1,1-0.1
	C22.6,6.2,22.7,6.3,22.7,6.5z"/>
</svg>
